<?xml version="1.0" standalone="no"?>
<!DOCTYPE svg PUBLIC "-//W3C//DTD SVG 20010904//EN"
 "http://www.w3.org/TR/2001/REC-SVG-20010904/DTD/svg10.dtd">
<svg version="1.0" xmlns="http://www.w3.org/2000/svg"
 width="100.000000pt" height="100.000000pt" viewBox="0 0 100.000000 100.000000"
 preserveAspectRatio="xMidYMid meet">

<g transform="translate(0.000000,100.000000) scale(0.100000,-0.100000)"
fill="#000000" stroke="none">
<path d="M695 870 c-11 -4 -39 -28 -62 -52 l-41 -43 89 -95 89 -94 49 48 c57
56 68 85 47 124 -25 47 -115 124 -143 121 -4 0 -17 -4 -28 -9z"/>
<path d="M520 575 c0 -10 7 -15 18 -13 21 4 19 22 -2 26 -10 2 -16 -3 -16 -13z"/>
<path d="M516 471 c-26 -27 -27 -31 -12 -37 23 -9 49 17 44 46 -3 21 -4 21
-32 -9z"/>
<path d="M395 451 c-3 -5 -1 -12 5 -16 12 -7 30 2 30 16 0 12 -27 12 -35 0z"/>
<path d="M230 283 c41 -39 77 -69 80 -66 6 6 -103 108 -133 124 -12 7 12 -20
53 -58z"/>
<path d="M127 183 c-9 -15 12 -50 33 -56 29 -7 37 18 15 43 -18 20 -40 26 -48
13z"/>
</g>
</svg>
