<svg width="25" height="24" viewBox="0 0 25 24" fill="none" xmlns="http://www.w3.org/2000/svg">
<path d="M22.2402 11.07C22.1902 10.56 21.7602 10.18 21.2502 10.18H13.7002C13.1502 10.18 12.7002 10.63 12.7002 11.18V12.89C12.7002 13.44 13.1502 13.89 13.7002 13.89H18.2102C18.1002 14.81 17.5002 16.2 16.1702 17.13C15.3202 17.72 14.1902 18.13 12.7002 18.13C12.6302 18.13 12.5702 18.13 12.5002 18.12C9.9502 18.04 7.7902 16.33 7.0102 13.98C6.8002 13.35 6.6802 12.69 6.6802 12C6.6802 11.31 6.8002 10.64 7.0002 10.02C7.0602 9.83999 7.1302 9.66001 7.2102 9.48001C8.1302 7.41001 10.1402 5.95 12.5002 5.88C12.5602 5.87 12.6302 5.87 12.7002 5.87C14.1302 5.87 15.2002 6.33999 15.9502 6.85999C16.3402 7.12999 16.8602 7.06999 17.2002 6.73999L18.5902 5.38C19.0302 4.95 18.9902 4.21999 18.4902 3.85999C16.9002 2.68999 14.9602 2 12.7002 2C12.6302 2 12.5702 2.00001 12.5002 2.01001C8.6702 2.08001 5.3802 4.30001 3.7702 7.51001C3.0902 8.87001 2.7002 10.39 2.7002 12C2.7002 13.61 3.0902 15.13 3.7702 16.49H3.7802C5.3902 19.7 8.6802 21.92 12.5002 21.99C12.5702 22 12.6302 22 12.7002 22C15.4002 22 17.6702 21.11 19.3202 19.58C21.2102 17.83 22.3002 15.27 22.3002 12.22C22.3002 11.79 22.2802 11.42 22.2402 11.07Z" fill="#21D4B4"/>
</svg>
