<svg width="32" height="32" viewBox="0 0 32 32" fill="none" xmlns="http://www.w3.org/2000/svg">
<path d="M23.2535 20.4933C23.0002 20.4933 22.7468 20.3999 22.5468 20.1999C22.1602 19.8133 22.1602 19.1733 22.5468 18.7866L25.2535 16.0799L22.5468 13.3733C22.1602 12.9866 22.1602 12.3466 22.5468 11.9599C22.9335 11.5733 23.5735 11.5733 23.9602 11.9599L27.3735 15.3733C27.7602 15.7599 27.7602 16.3999 27.3735 16.7866L23.9602 20.1999C23.7602 20.3999 23.5068 20.4933 23.2535 20.4933Z" fill="white"/>
<path d="M26.5737 17.0801H13.0137C12.467 17.0801 12.0137 16.6267 12.0137 16.0801C12.0137 15.5334 12.467 15.0801 13.0137 15.0801H26.5737C27.1203 15.0801 27.5737 15.5334 27.5737 16.0801C27.5737 16.6267 27.1203 17.0801 26.5737 17.0801Z" fill="white"/>
<path d="M15.6803 27.6673C8.81367 27.6673 4.01367 22.8673 4.01367 16.0007C4.01367 9.13398 8.81367 4.33398 15.6803 4.33398C16.227 4.33398 16.6803 4.78732 16.6803 5.33398C16.6803 5.88065 16.227 6.33398 15.6803 6.33398C9.98701 6.33398 6.01367 10.3073 6.01367 16.0007C6.01367 21.694 9.98701 25.6673 15.6803 25.6673C16.227 25.6673 16.6803 26.1206 16.6803 26.6673C16.6803 27.214 16.227 27.6673 15.6803 27.6673Z" fill="white"/>
</svg>
