<svg width="62" height="18" viewBox="0 0 62 18" fill="none" xmlns="http://www.w3.org/2000/svg">
<path fill-rule="evenodd" clip-rule="evenodd" d="M48.1496 3.49959C46.6496 3.49959 45.4496 3.89959 44.4496 4.09959L44.1496 6.39959C44.6496 6.19959 46.0496 5.79959 47.2496 5.69959C48.4496 5.69959 49.1496 5.89959 48.9496 6.99959C45.3496 6.99959 42.9496 7.69959 42.4496 10.0996C41.7496 14.0996 46.1496 14.1996 47.8496 12.3996L47.6496 13.4996H50.8496L52.2496 6.99959C52.7496 4.29959 50.3496 3.39959 48.1496 3.49959ZM48.3496 10.1996C48.1496 10.9996 47.4496 11.2996 46.6496 11.3996C45.9496 11.3996 45.3496 10.9996 45.7496 10.1996C46.1496 9.59959 47.0496 9.59959 47.7496 9.59959H48.5496C48.4496 9.49959 48.3496 9.89959 48.3496 10.1996Z" fill="#32A6CE"/>
<path fill-rule="evenodd" clip-rule="evenodd" d="M44.1496 6.39961C44.6496 6.19961 46.0496 5.79961 47.2496 5.69961C48.4496 5.69961 49.1496 5.89961 48.9496 6.99961C45.3496 6.99961 42.9496 7.69961 42.4496 10.0996C41.7496 14.0996 46.1496 14.1996 47.8496 12.3996L47.6496 13.4996H50.8496L52.2496 6.99961C52.8496 4.29961 50.3496 3.59961 48.1496 3.59961M48.3496 10.1996C48.1496 10.9996 47.4496 11.2996 46.6496 11.3996C45.9496 11.3996 45.3496 10.9996 45.7496 10.1996C46.1496 9.59961 47.0496 9.59961 47.7496 9.59961H48.5496C48.4496 9.49961 48.3496 9.89961 48.3496 10.1996Z" fill="#1A80AD"/>
<path fill-rule="evenodd" clip-rule="evenodd" d="M54.9494 0.5L52.3494 13.5H55.5494L58.2494 0.5H54.9494Z" fill="#32A6CE"/>
<path fill-rule="evenodd" clip-rule="evenodd" d="M57.2494 0.5L52.3494 13.5H55.5494L58.2494 0.5H54.9494H57.2494Z" fill="#1A80AD"/>
<path fill-rule="evenodd" clip-rule="evenodd" d="M40.0496 0.5H34.1496L31.5496 13.5H35.0496L35.9496 9.5H38.4496C40.8496 9.5 42.8496 8.1 43.3496 5.6C43.8496 2.7 41.7496 0.5 40.0496 0.5ZM39.9496 5C39.7496 5.9 38.8496 6.5 37.9496 6.5H36.3496L37.0496 3.5H38.7496C39.6496 3.5 40.1496 4.1 39.9496 5Z" fill="#32A6CE"/>
<path fill-rule="evenodd" clip-rule="evenodd" d="M40.05 0.5H36.05L31.45 13.5H34.95L35.85 9.5H38.35C40.75 9.5 42.75 8.1 43.25 5.6C43.85 2.7 41.75 0.5 40.05 0.5ZM39.95 5C39.75 5.9 38.85 6.5 37.95 6.5H36.35L37.05 3.5H38.75C39.65 3.5 40.15 4.1 39.95 5Z" fill="#1A80AD"/>
<path fill-rule="evenodd" clip-rule="evenodd" d="M16.9492 3.49959C15.4492 3.49959 14.2492 3.89959 13.3492 4.09959L13.0492 6.39959C13.4492 6.19959 14.9492 5.79959 16.1492 5.69959C17.3492 5.69959 18.0492 5.89959 17.8492 6.99959C14.3492 6.99959 11.9492 7.69959 11.4492 10.0996C10.7492 14.0996 15.0492 14.1996 16.7492 12.3996L16.5492 13.4996H19.7492L21.1492 6.99959C21.6492 4.29959 19.1492 3.39959 16.9492 3.49959ZM17.2492 10.1996C17.0492 10.9996 16.3492 11.2996 15.5492 11.3996C14.8492 11.3996 14.2492 10.9996 14.7492 10.1996C15.1492 9.59959 16.0492 9.59959 16.6492 9.59959H17.4492C17.3492 9.49959 17.2492 9.89959 17.2492 10.1996Z" fill="#21789E"/>
<path fill-rule="evenodd" clip-rule="evenodd" d="M13.1498 6.39961C13.5498 6.19961 15.0498 5.79961 16.2498 5.69961C17.4498 5.69961 18.1498 5.89961 17.9498 6.99961C14.4498 6.99961 12.0498 7.69961 11.5498 10.0996C10.8498 14.0996 15.1498 14.1996 16.8498 12.3996L16.5498 13.4996H19.7498L21.1498 6.99961C21.7498 4.29961 19.2498 3.59961 17.0498 3.59961M17.2498 10.1996C17.0498 10.9996 16.3498 11.2996 15.5498 11.3996C14.8498 11.3996 14.2498 10.9996 14.7498 10.1996C15.1498 9.59961 16.0498 9.59961 16.6498 9.59961H17.4498C17.3498 9.49961 17.2498 9.89961 17.2498 10.1996Z" fill="#1A5B80"/>
<path fill-rule="evenodd" clip-rule="evenodd" d="M22.45 3.5H25.65L26.15 9.1L29.35 3.5H32.65L25.05 17.5H21.45L23.75 13.3L22.45 3.5Z" fill="#21789E"/>
<path fill-rule="evenodd" clip-rule="evenodd" d="M25.65 3.7L26.15 9.2L29.35 3.5H32.65L25.05 17.5H21.45L23.75 13.4" fill="#1A5B80"/>
<path fill-rule="evenodd" clip-rule="evenodd" d="M9.05001 0.5H3.05001L0.450012 13.5H3.95001L4.85001 9.5H7.35001C9.75001 9.5 11.75 8.1 12.25 5.6C12.85 2.7 10.75 0.5 9.05001 0.5ZM8.95001 5C8.75001 5.9 7.85001 6.5 6.95001 6.5H5.35001L6.05001 3.5H7.75001C8.65001 3.5 9.15001 4.1 8.95001 5Z" fill="#21789E"/>
<path fill-rule="evenodd" clip-rule="evenodd" d="M9.05001 0.5H6.35001L0.450012 13.5H3.95001L4.85001 9.5H7.35001C9.75001 9.5 11.75 8.1 12.25 5.6C12.85 2.7 10.75 0.5 9.05001 0.5ZM8.95001 5C8.75001 5.9 7.85001 6.5 6.95001 6.5H5.35001L6.05001 3.5H7.75001C8.65001 3.5 9.15001 4.1 8.95001 5Z" fill="#1A5B80"/>
<path fill-rule="evenodd" clip-rule="evenodd" d="M16.3498 7C13.6498 7.2 11.8498 8 11.4498 10C10.7498 14 15.0498 14.1 16.7498 12.3L16.5498 13.5H19.7498L20.2498 11.1L16.3498 7ZM17.2498 10.2C17.0498 11 16.3498 11.3 15.5498 11.4C14.8498 11.4 14.2498 11 14.7498 10.2C15.1498 9.6 16.0498 9.6 16.6498 9.6H17.4498C17.3498 9.5 17.2498 9.9 17.2498 10.2ZM26.3498 9L26.1498 9.3L28.2498 11.3L32.6498 3.5H29.3498L26.3498 9ZM3.94982 13.5L4.84982 9.5L0.749817 13.5H3.94982Z" fill="#06435E"/>
<path d="M55.9031 9.64941L55.1502 13H53.0809L54.8289 8.5166L55.9031 9.64941ZM49.7078 10.0996L50.8065 11.2539L50.4432 13H48.2899L48.4354 12.4209L48.8983 10.5674L48.6024 10.8799C48.7016 10.7189 48.7815 10.5343 48.8348 10.3213L48.8494 10.2617V10.2002C48.8494 10.1679 48.8541 10.1337 48.8572 10.0996H49.7078ZM34.5457 13H32.9568L34.9783 10.9775L34.5457 13ZM48.8699 9.21875C48.7767 9.13926 48.6268 9.06038 48.4344 9.09082C48.4207 9.093 48.4073 9.09656 48.3943 9.09961H47.7498C47.4099 9.09961 46.9574 9.09836 46.5359 9.18555C46.1112 9.27344 45.6373 9.46767 45.3338 9.92285L45.3162 9.94824L45.3026 9.97656C45.1738 10.2341 45.1057 10.4996 45.1248 10.7617C45.1445 11.0308 45.2542 11.2627 45.4227 11.4424C45.7423 11.7831 46.2289 11.9004 46.6502 11.9004H46.6805L46.7117 11.8965C47.183 11.8376 47.6932 11.7015 48.1043 11.4072L47.5867 11.957C46.8661 12.7201 45.5273 13.0982 44.4686 12.8389C43.9561 12.7133 43.5413 12.4465 43.283 12.0342C43.0245 11.6213 42.8831 10.9984 43.0428 10.0859L43.0418 10.085C43.2135 9.24372 43.6676 8.66592 44.3836 8.25977C45.0828 7.86324 46.0438 7.62777 47.2537 7.51953L48.8699 9.21875Z" fill="#2273AA" stroke="black"/>
<path d="M58.95 2.60039V1.20039H58.45V1.00039H59.75V1.20039H59.25V2.60039H58.95ZM59.95 2.60039V1.00039H60.25L60.65 2.10039C60.65 2.20039 60.75 2.30039 60.75 2.30039C60.75 2.20039 60.75 2.20039 60.85 2.00039L61.25 0.900391H61.55V2.50039H61.35V1.10039L60.85 2.50039H60.55L60.05 1.10039V2.50039H59.95V2.60039Z" fill="#32A6CE"/>
</svg>
